M48
; DRILL file KiCad 10.0.6 date 2026-09-24T17:51:21
; FORMAT={-:-/ absolute / metric / decimal}
; #@! TF.CreationDate,2026-09-24T17:51:21+10:00
; #@! TF.GenerationSoftware,Kicad,Pcbnew,10.0.6
; #@! TF.FileFunction,Plated,1,4,PTH
FMAT,2
METRIC
; #@! TA.AperFunction,Plated,PTH,ViaDrill
T1C0.300
; #@! TA.AperFunction,Plated,PTH,ViaDrill
T2C0.400
; #@! TA.AperFunction,Plated,PTH,ComponentDrill
T3C1.000
; #@! TA.AperFunction,Plated,PTH,ComponentDrill
T4C1.300
; #@! TA.AperFunction,Plated,PTH,ComponentDrill
T5C3.200
%
G90
G05
T1
X25.0Y-124.0
X25.5Y-111.5
X26.0Y-114.75
X26.0Y-119.75
X26.0Y-129.75
X26.0Y-134.75
X26.25Y-141.75
X26.5Y-140.5
X26.75Y-109.0
X27.0Y-130.5
X27.204Y-145.11
X27.25Y-133.25
X27.25Y-136.75
X29.0Y-108.6
X29.0Y-141.25
X29.25Y-142.25
X29.5Y-136.75
X29.7Y-99.7
X29.7Y-129.7
X29.7Y-144.7
X29.7Y-149.7
X30.0Y-115.5
X30.5Y-106.5
X30.5Y-113.5
X31.0Y-116.5
X31.25Y-136.5
X31.5Y-123.0
X31.5Y-126.0
X31.5Y-152.5
X31.75Y-130.25
X32.5Y-148.5
X33.066Y-108.016
X33.5Y-106.5
X33.5Y-115.25
X33.5Y-141.25
X33.75Y-134.0
X33.788Y-105.525
X34.0Y-138.0
X34.294Y-152.643
X34.5Y-111.0
X34.7Y-99.7
X34.7Y-129.7
X34.7Y-144.7
X34.951Y-118.701
X35.0Y-120.5
X35.0Y-148.5
X35.0Y-150.5
X35.214Y-152.744
X35.25Y-126.75
X35.75Y-120.0
X36.0Y-113.0
X36.125Y-110.625
X36.5Y-117.5
X36.75Y-116.5
X37.15Y-121.636
X37.25Y-137.75
X37.25Y-142.5
X37.25Y-148.5
X37.25Y-150.5
X37.5Y-141.0
X37.633Y-136.894
X38.0Y-108.0
X38.1Y-111.8
X38.25Y-118.0
X38.25Y-130.25
X38.5Y-112.5
X39.5Y-111.0
X39.7Y-99.7
X39.7Y-134.7
X39.7Y-144.7
X40.25Y-140.0
X40.5Y-116.5
X40.5Y-130.5
X40.75Y-136.0
X41.0Y-106.5
X41.0Y-114.0
X41.5Y-111.9
X41.5Y-118.35
X41.5Y-122.5
X41.707Y-147.49
X41.707Y-148.51
X41.707Y-149.529
X41.707Y-150.549
X41.707Y-151.569
X41.707Y-152.588
X42.0Y-139.75
X42.75Y-122.25
X43.579Y-106.861
X43.886Y-119.386
X44.312Y-105.517
X44.7Y-99.7
X45.0Y-137.5
X45.062Y-122.25
X45.327Y-108.835
X45.5Y-144.5
X46.0Y-142.5
X46.25Y-148.5
X46.25Y-150.5
X46.25Y-152.5
X46.75Y-109.5
X46.767Y-107.277
X46.996Y-134.513
X47.0Y-139.25
X47.5Y-111.967
X47.5Y-132.0
X47.5Y-136.0
X48.25Y-139.5
X48.5Y-148.5
X48.5Y-150.5
X49.0Y-106.5
X49.0Y-110.5
X49.7Y-99.7
X50.25Y-116.75
X50.75Y-114.5
X51.0Y-148.25
X51.0Y-149.509
X51.5Y-106.5
X51.5Y-125.75
X51.5Y-137.5
X51.75Y-115.25
X51.769Y-107.512
X51.85Y-123.0
X52.0Y-145.0
X52.0Y-146.6
X52.0Y-152.25
X52.174Y-150.174
X52.326Y-148.326
X52.5Y-118.0
X52.5Y-143.0
X52.75Y-137.25
X52.75Y-139.75
X53.0Y-127.25
X53.0Y-146.5
X53.174Y-149.174
X53.25Y-131.25
X53.5Y-129.25
X53.5Y-150.5
X54.0Y-116.5
X54.25Y-125.25
X54.5Y-108.0
X54.5Y-148.238
X54.6Y-119.5
X54.7Y-99.7
X54.7Y-104.7
X54.701Y-152.701
X54.717Y-105.626
X54.75Y-128.8
X54.993Y-147.359
X55.0Y-103.25
X55.0Y-133.5
X55.25Y-115.5
X55.25Y-140.0
X55.25Y-149.25
X55.25Y-151.0
X55.413Y-145.9
X55.432Y-154.068
X55.5Y-109.5
X55.5Y-126.0
X55.5Y-136.25
X55.75Y-118.0
X55.774Y-153.325
X55.875Y-127.6
X56.0Y-110.5
X56.0Y-122.75
X56.0Y-129.0
X56.131Y-147.545
X56.225Y-145.063
X56.25Y-133.25
X56.478Y-148.85
X56.708Y-153.504
X56.825Y-149.773
X56.95Y-127.6
X57.0Y-117.75
X57.116Y-137.38
X57.362Y-151.0
X57.5Y-109.5
X57.5Y-118.75
X57.5Y-128.9
X57.75Y-120.0
X57.75Y-127.6
X58.0Y-105.75
X58.128Y-133.275
X58.25Y-122.75
X58.355Y-108.425
X58.4Y-137.0
X58.5Y-111.0
X58.5Y-115.25
X58.5Y-125.0
X58.5Y-129.0
X58.616Y-104.3
X58.75Y-121.25
X58.871Y-143.908
X58.937Y-145.487
X59.0Y-127.6
X59.0Y-131.25
X59.0Y-150.817
X59.5Y-140.5
X59.6Y-129.6
X59.7Y-99.7
X59.75Y-125.75
X59.9Y-137.75
X59.974Y-150.75
X60.0Y-111.5
X60.0Y-123.0
X60.25Y-146.6
X60.308Y-106.356
X60.5Y-104.5
X60.5Y-109.0
X60.5Y-110.5
X60.5Y-127.6
X60.5Y-132.0
X60.5Y-133.25
X60.5Y-139.5
X60.53Y-144.072
X60.75Y-115.25
X60.75Y-116.5
X61.0Y-150.5
X61.25Y-136.25
X61.275Y-152.518
X61.5Y-154.0
X61.507Y-146.902
X61.75Y-129.6
X62.0Y-106.0
X62.0Y-123.0
X62.0Y-139.5
X62.135Y-149.774
X62.25Y-127.6
X62.5Y-113.0
X62.5Y-116.0
X62.5Y-119.5
X62.5Y-130.25
X62.5Y-144.0
X62.75Y-120.75
X63.0Y-114.5
X63.0Y-122.0
X63.083Y-153.156
X63.15Y-118.5
X63.299Y-127.6
X63.5Y-104.5
X63.5Y-130.75
X63.5Y-149.5
X64.0Y-111.0
X64.0Y-127.0
X64.201Y-115.951
X64.35Y-118.5
X64.5Y-112.0
X64.5Y-114.5
X64.5Y-120.75
X64.5Y-137.5
X64.7Y-99.7
X64.739Y-141.582
X64.75Y-113.0
X64.75Y-122.25
X64.75Y-129.6
X64.863Y-136.558
X64.9Y-144.0
X65.0Y-103.5
X65.0Y-119.5
X65.25Y-106.75
X65.25Y-108.0
X65.5Y-111.5
X65.5Y-149.0
X65.5Y-151.0
X65.956Y-144.944
X66.0Y-123.0
X66.0Y-126.75
X66.1Y-140.5
X66.248Y-135.241
X66.25Y-129.5
X66.25Y-143.75
X66.295Y-124.986
X66.478Y-109.6
X66.481Y-108.4
X66.5Y-116.25
X66.5Y-137.5
X67.0Y-107.0
X67.253Y-106.241
X67.325Y-108.7
X67.5Y-111.5
X67.5Y-129.75
X67.75Y-114.0
X67.76Y-122.491
X67.9Y-120.07
X67.9Y-121.388
X68.0Y-108.0
X68.0Y-118.0
X68.0Y-134.75
X68.416Y-126.5
X68.5Y-125.25
X68.5Y-130.0
X68.624Y-119.026
X69.178Y-111.299
X69.25Y-146.25
X69.56Y-120.475
X69.644Y-140.324
X69.7Y-104.7
X69.7Y-144.7
X69.7Y-149.7
X70.0Y-128.8
X70.0Y-135.0
X70.25Y-139.25
X70.389Y-109.263
X70.418Y-142.325
X70.5Y-107.5
X70.5Y-137.5
X70.75Y-120.5
X71.0Y-110.5
X71.0Y-118.0
X71.0Y-126.25
X71.0Y-135.25
X71.0Y-140.5
X71.25Y-123.5
X71.25Y-124.5
X71.5Y-102.75
X71.5Y-106.25
X71.5Y-111.3
X71.5Y-127.6
X71.6Y-109.0
X71.75Y-114.0
X71.75Y-117.25
X72.0Y-110.5
X72.0Y-126.5
X72.001Y-107.249
X72.619Y-130.585
X72.75Y-129.25
X73.0Y-116.75
X73.159Y-106.744
X73.25Y-126.25
X73.451Y-115.049
X73.5Y-125.5
X73.725Y-113.626
X73.75Y-116.0
X73.822Y-117.246
X74.0Y-146.0
X74.5Y-102.0
X74.5Y-106.0
X74.65Y-127.25
X74.666Y-140.292
X74.7Y-99.7
X74.7Y-144.7
X74.7Y-149.7
X74.725Y-134.688
X74.768Y-107.0
X75.0Y-136.0
X75.151Y-115.849
X75.25Y-139.0
X75.75Y-117.25
X75.75Y-120.0
X75.75Y-126.75
X75.75Y-131.5
X76.0Y-121.0
X76.0Y-124.25
X76.0Y-140.5
X76.25Y-114.75
X76.25Y-129.35
X76.75Y-104.0
X77.0Y-114.0
X77.25Y-105.75
X77.4Y-110.0
X77.5Y-108.0
X77.5Y-115.75
X77.5Y-119.75
X77.75Y-107.0
X78.225Y-114.8
X78.5Y-125.25
X78.6Y-110.25
X78.612Y-111.11
X78.75Y-108.75
X78.757Y-111.897
X79.0Y-115.0
X79.0Y-129.75
X79.0Y-144.5
X79.5Y-109.5
X79.5Y-112.35
X79.5Y-135.0
X79.5Y-140.264
X79.7Y-99.7
X79.7Y-104.7
X79.7Y-149.7
X79.75Y-124.5
X80.0Y-117.25
X80.356Y-112.35
X80.411Y-108.341
X80.411Y-109.673
X80.504Y-119.424
X80.555Y-110.536
X80.75Y-127.5
X81.0Y-140.5
X81.226Y-120.024
X81.25Y-146.5
X81.5Y-116.0
X81.5Y-122.5
X81.5Y-124.0
X81.5Y-125.75
X82.378Y-111.864
X82.75Y-118.25
X82.962Y-111.317
X83.175Y-113.675
X83.24Y-110.567
X83.25Y-105.75
X83.25Y-107.75
X83.625Y-122.625
X83.75Y-124.5
X83.75Y-128.8
X83.979Y-108.979
X84.0Y-146.5
X84.25Y-125.75
X84.5Y-119.5
X84.5Y-135.0
X84.5Y-140.352
X84.581Y-116.259
X84.601Y-112.475
X84.678Y-106.304
X84.7Y-99.7
X84.7Y-144.7
X84.7Y-149.7
X84.75Y-113.675
X84.75Y-114.5
X84.75Y-123.5
X84.789Y-104.038
X85.0Y-129.0
X85.062Y-127.515
X85.5Y-140.5
X85.75Y-126.5
X86.049Y-101.514
X86.25Y-114.0
X86.25Y-125.25
X86.25Y-127.5
X86.25Y-146.5
X86.5Y-129.0
X86.5Y-137.5
X87.087Y-115.413
X87.128Y-113.675
X87.25Y-125.5
X87.303Y-123.832
X87.5Y-112.0
X87.5Y-118.75
X88.0Y-104.25
X88.144Y-110.71
X88.25Y-121.5
X88.5Y-137.5
X88.75Y-123.75
X89.0Y-116.75
X89.25Y-148.6
X89.391Y-108.7
X89.457Y-107.25
X89.5Y-135.0
X89.5Y-140.301
X89.651Y-129.5
X89.7Y-99.7
X89.7Y-149.7
X89.75Y-113.675
X89.75Y-118.0
X89.75Y-128.5
X89.75Y-146.5
X90.0Y-102.5
X90.0Y-105.5
X90.0Y-110.75
X90.0Y-143.5
X90.25Y-112.475
X90.25Y-132.0
X90.494Y-119.951
X91.0Y-107.0
X91.0Y-109.75
X91.5Y-104.5
X91.5Y-115.0
X91.738Y-108.848
X91.75Y-135.5
X91.75Y-143.5
X92.0Y-140.5
X92.174Y-111.424
X92.5Y-107.001
X93.17Y-121.92
X93.25Y-136.0
X93.75Y-118.75
X93.75Y-142.75
X94.0Y-104.5
X94.0Y-112.0
X94.5Y-102.5
X94.7Y-129.7
X95.0Y-110.75
X95.104Y-106.845
X95.5Y-139.0
X95.5Y-140.75
X95.506Y-104.756
X95.75Y-114.25
X95.75Y-135.75
X96.0Y-118.5
X96.739Y-104.088
X96.75Y-102.25
X96.75Y-110.25
X96.979Y-108.72
X97.0Y-142.0
T2
X28.0Y-130.0
X28.578Y-135.5
X29.0Y-138.0
X29.989Y-135.5
X30.0Y-138.0
X31.0Y-138.0
X31.5Y-135.5
X35.25Y-137.5
T3
X32.25Y-110.5
X42.75Y-110.5
X43.767Y-135.169
X51.267Y-134.946
X53.25Y-110.5
X57.267Y-135.196
X63.517Y-134.946
T4
X30.0Y-118.5
X30.0Y-121.5
X30.0Y-124.5
X30.0Y-127.5
X33.0Y-118.5
X33.0Y-121.5
X33.0Y-124.5
X33.0Y-127.5
T5
X27.5Y-97.0
X27.5Y-151.0
X95.0Y-97.0
X95.0Y-151.0
M30
