G04 #@! TF.GenerationSoftware,KiCad,Pcbnew,10.0.6*
G04 #@! TF.CreationDate,2026-09-29T12:08:41+10:00*
G04 #@! TF.ProjectId,bspd,62737064-2e6b-4696-9361-645f70636258,rev?*
G04 #@! TF.SameCoordinates,Original*
G04 #@! TF.FileFunction,Soldermask,Top*
G04 #@! TF.FilePolarity,Negative*
%FSLAX46Y46*%
G04 Gerber Fmt 4.6, Leading zero omitted, Abs format (unit mm)*
G04 Created by KiCad (PCBNEW 10.0.6) date 2026-09-29 12:08:41*
%MOMM*%
%LPD*%
G01*
G04 APERTURE LIST*
G04 Aperture macros list*
%AMRoundRect*
0 Rectangle with rounded corners*
0 $1 Rounding radius*
0 $2 $3 $4 $5 $6 $7 $8 $9 X,Y pos of 4 corners*
0 Add a 4 corners polygon primitive as box body*
4,1,4,$2,$3,$4,$5,$6,$7,$8,$9,$2,$3,0*
0 Add four circle primitives for the rounded corners*
1,1,$1+$1,$2,$3*
1,1,$1+$1,$4,$5*
1,1,$1+$1,$6,$7*
1,1,$1+$1,$8,$9*
0 Add four rect primitives between the rounded corners*
20,1,$1+$1,$2,$3,$4,$5,0*
20,1,$1+$1,$4,$5,$6,$7,0*
20,1,$1+$1,$6,$7,$8,$9,0*
20,1,$1+$1,$8,$9,$2,$3,0*%
G04 Aperture macros list end*
%ADD10RoundRect,0.250000X-0.350000X-0.450000X0.350000X-0.450000X0.350000X0.450000X-0.350000X0.450000X0*%
%ADD11RoundRect,0.275000X-0.275000X-0.525000X0.275000X-0.525000X0.275000X0.525000X-0.275000X0.525000X0*%
%ADD12RoundRect,0.400000X-0.400000X-0.400000X0.400000X-0.400000X0.400000X0.400000X-0.400000X0.400000X0*%
%ADD13RoundRect,0.250000X0.337500X0.475000X-0.337500X0.475000X-0.337500X-0.475000X0.337500X-0.475000X0*%
%ADD14RoundRect,0.250000X-0.450000X0.350000X-0.450000X-0.350000X0.450000X-0.350000X0.450000X0.350000X0*%
%ADD15RoundRect,0.250000X-0.337500X-0.475000X0.337500X-0.475000X0.337500X0.475000X-0.337500X0.475000X0*%
%ADD16C,2.000000*%
%ADD17RoundRect,0.250000X-0.475000X0.337500X-0.475000X-0.337500X0.475000X-0.337500X0.475000X0.337500X0*%
%ADD18RoundRect,0.275000X-0.350000X-0.275000X0.350000X-0.275000X0.350000X0.275000X-0.350000X0.275000X0*%
%ADD19RoundRect,0.250000X0.350000X0.450000X-0.350000X0.450000X-0.350000X-0.450000X0.350000X-0.450000X0*%
%ADD20RoundRect,0.250000X0.450000X-0.350000X0.450000X0.350000X-0.450000X0.350000X-0.450000X-0.350000X0*%
%ADD21RoundRect,0.100000X-0.637500X-0.100000X0.637500X-0.100000X0.637500X0.100000X-0.637500X0.100000X0*%
%ADD22RoundRect,0.125000X-0.537500X-0.125000X0.537500X-0.125000X0.537500X0.125000X-0.537500X0.125000X0*%
%ADD23RoundRect,0.250000X0.475000X-0.337500X0.475000X0.337500X-0.475000X0.337500X-0.475000X-0.337500X0*%
%ADD24RoundRect,0.150000X-0.625000X-0.150000X0.625000X-0.150000X0.625000X0.150000X-0.625000X0.150000X0*%
%ADD25RoundRect,0.150000X-0.587500X-0.150000X0.587500X-0.150000X0.587500X0.150000X-0.587500X0.150000X0*%
%ADD26C,5.500000*%
%ADD27RoundRect,0.050000X0.150000X0.300000X-0.150000X0.300000X-0.150000X-0.300000X0.150000X-0.300000X0*%
%ADD28RoundRect,0.225000X0.225000X0.375000X-0.225000X0.375000X-0.225000X-0.375000X0.225000X-0.375000X0*%
%ADD29R,2.600000X2.600000*%
%ADD30C,2.600000*%
%ADD31RoundRect,0.275000X0.350000X0.275000X-0.350000X0.275000X-0.350000X-0.275000X0.350000X-0.275000X0*%
%ADD32RoundRect,0.250000X1.000000X0.900000X-1.000000X0.900000X-1.000000X-0.900000X1.000000X-0.900000X0*%
%ADD33RoundRect,0.250000X-0.250000X-0.400000X0.250000X-0.400000X0.250000X0.400000X-0.250000X0.400000X0*%
%ADD34RoundRect,0.375000X0.375000X-0.625000X0.375000X0.625000X-0.375000X0.625000X-0.375000X-0.625000X0*%
%ADD35RoundRect,0.500000X1.400000X-0.500000X1.400000X0.500000X-1.400000X0.500000X-1.400000X-0.500000X0*%
%ADD36RoundRect,0.150000X-0.400000X-0.150000X0.400000X-0.150000X0.400000X0.150000X-0.400000X0.150000X0*%
%ADD37RoundRect,0.250000X-0.650000X1.000000X-0.650000X-1.000000X0.650000X-1.000000X0.650000X1.000000X0*%
%ADD38RoundRect,0.150000X0.587500X0.150000X-0.587500X0.150000X-0.587500X-0.150000X0.587500X-0.150000X0*%
%ADD39RoundRect,0.225000X-0.225000X-0.375000X0.225000X-0.375000X0.225000X0.375000X-0.225000X0.375000X0*%
G04 APERTURE END LIST*
D10*
X38500000Y-149500000D03*
X40500000Y-149500000D03*
D11*
X73933604Y-139134024D03*
D12*
X72783604Y-136234024D03*
D11*
X71633604Y-139134024D03*
D13*
X55266584Y-141695588D03*
X53191584Y-141695588D03*
D14*
X44266584Y-138419324D03*
X44266584Y-140419324D03*
D15*
X76715111Y-133611797D03*
X78790111Y-133611797D03*
D14*
X29250000Y-105500000D03*
X29250000Y-107500000D03*
D13*
X36537500Y-136000000D03*
X34462500Y-136000000D03*
D14*
X75500000Y-102850000D03*
X75500000Y-104850000D03*
D15*
X76412500Y-118400438D03*
X78487500Y-118400438D03*
X93912500Y-117400438D03*
X95987500Y-117400438D03*
D16*
X32250000Y-110500000D03*
D17*
X73500000Y-108026518D03*
X73500000Y-110101518D03*
D18*
X47325000Y-149500000D03*
X49675000Y-149500000D03*
D19*
X95500000Y-101500000D03*
X93500000Y-101500000D03*
D10*
X53100000Y-121750000D03*
X55100000Y-121750000D03*
D14*
X50766584Y-138445588D03*
X50766584Y-140445588D03*
D10*
X38500000Y-147500000D03*
X40500000Y-147500000D03*
D19*
X64850000Y-124250000D03*
X62850000Y-124250000D03*
D15*
X62462500Y-152000000D03*
X64537500Y-152000000D03*
D20*
X87761834Y-146354118D03*
X87761834Y-144354118D03*
D19*
X45000000Y-147500000D03*
X43000000Y-147500000D03*
X45000000Y-149500000D03*
X43000000Y-149500000D03*
D21*
X63410029Y-106050000D03*
X63410029Y-106700000D03*
X63410029Y-107350000D03*
X63410029Y-108000000D03*
X63410029Y-108650000D03*
X63410029Y-109300000D03*
X63410029Y-109950000D03*
X69135029Y-109950000D03*
X69135029Y-109300000D03*
X69135029Y-108650000D03*
X69135029Y-108000000D03*
X69135029Y-107350000D03*
X69135029Y-106700000D03*
X69135029Y-106050000D03*
D14*
X69600000Y-115250000D03*
X69600000Y-117250000D03*
D16*
X43766584Y-135169324D03*
D13*
X42304084Y-141419324D03*
X40229084Y-141419324D03*
D11*
X78883604Y-139134024D03*
D12*
X77733604Y-136234024D03*
D11*
X76583604Y-139134024D03*
D21*
X88137500Y-105550000D03*
X88137500Y-106200000D03*
X88137500Y-106850000D03*
X88137500Y-107500000D03*
X88137500Y-108150000D03*
X88137500Y-108800000D03*
X88137500Y-109450000D03*
X93862500Y-109450000D03*
X93862500Y-108800000D03*
X93862500Y-108150000D03*
X93862500Y-107500000D03*
X93862500Y-106850000D03*
X93862500Y-106200000D03*
X93862500Y-105550000D03*
D20*
X72761834Y-146354118D03*
X72761834Y-144354118D03*
D15*
X86621104Y-133609024D03*
X88696104Y-133609024D03*
D22*
X57862500Y-147525000D03*
X57862500Y-148175000D03*
X57862500Y-148825000D03*
X57862500Y-149475000D03*
X60137500Y-149475000D03*
X60137500Y-148825000D03*
X60137500Y-148175000D03*
X60137500Y-147525000D03*
D20*
X77761834Y-146354118D03*
X77761834Y-144354118D03*
D13*
X36537500Y-140000000D03*
X34462500Y-140000000D03*
D23*
X35000000Y-107507500D03*
X35000000Y-105432500D03*
D18*
X47325000Y-147500000D03*
X49675000Y-147500000D03*
D10*
X81450000Y-121400438D03*
X83450000Y-121400438D03*
D24*
X86250000Y-116840438D03*
X86250000Y-118110438D03*
X86250000Y-119380438D03*
X86250000Y-120650438D03*
X86250000Y-121920438D03*
X86250000Y-123190438D03*
X86250000Y-124460438D03*
X91650000Y-124460438D03*
X91650000Y-123190438D03*
X91650000Y-121920438D03*
X91650000Y-120650438D03*
X91650000Y-119380438D03*
X91650000Y-118110438D03*
X91650000Y-116840438D03*
D23*
X45500000Y-107507500D03*
X45500000Y-105432500D03*
D13*
X61804084Y-141695588D03*
X59729084Y-141695588D03*
D21*
X76137500Y-107100000D03*
X76137500Y-107750000D03*
X76137500Y-108400000D03*
X76137500Y-109050000D03*
X76137500Y-109700000D03*
X76137500Y-110350000D03*
X76137500Y-111000000D03*
X81862500Y-111000000D03*
X81862500Y-110350000D03*
X81862500Y-109700000D03*
X81862500Y-109050000D03*
X81862500Y-108400000D03*
X81862500Y-107750000D03*
X81862500Y-107100000D03*
D19*
X55100000Y-124000000D03*
X53100000Y-124000000D03*
D21*
X60987500Y-118050000D03*
X60987500Y-118700000D03*
X60987500Y-119350000D03*
X60987500Y-120000000D03*
X60987500Y-120650000D03*
X60987500Y-121300000D03*
X60987500Y-121950000D03*
X66712500Y-121950000D03*
X66712500Y-121300000D03*
X66712500Y-120650000D03*
X66712500Y-120000000D03*
X66712500Y-119350000D03*
X66712500Y-118700000D03*
X66712500Y-118050000D03*
D25*
X41812500Y-115800000D03*
X41812500Y-117700000D03*
X43687500Y-116750000D03*
D23*
X85971995Y-106745115D03*
X85971995Y-104670115D03*
D26*
X27500000Y-151000000D03*
D23*
X58850000Y-119037500D03*
X58850000Y-116962500D03*
D14*
X63766584Y-142695588D03*
X63766584Y-144695588D03*
X27000000Y-125000000D03*
X27000000Y-127000000D03*
D16*
X51266584Y-134945588D03*
D14*
X50766584Y-142695588D03*
X50766584Y-144695588D03*
X44266584Y-142669324D03*
X44266584Y-144669324D03*
D20*
X42500000Y-107500000D03*
X42500000Y-105500000D03*
D17*
X60850000Y-124212500D03*
X60850000Y-126287500D03*
D11*
X88758604Y-139134024D03*
D12*
X87608604Y-136234024D03*
D11*
X86458604Y-139134024D03*
X83808604Y-139134024D03*
D12*
X82658604Y-136234024D03*
D11*
X81508604Y-139134024D03*
X68983604Y-139134024D03*
D12*
X67833604Y-136234024D03*
D11*
X66683604Y-139134024D03*
D16*
X63516584Y-134945588D03*
D20*
X67100000Y-126000000D03*
X67100000Y-124000000D03*
D10*
X46500000Y-125250000D03*
X48500000Y-125250000D03*
D16*
X42750000Y-110500000D03*
D20*
X57266584Y-144695588D03*
X57266584Y-142695588D03*
X96000000Y-107891774D03*
X96000000Y-105891774D03*
D27*
X36108069Y-111752703D03*
X35408069Y-111752703D03*
D28*
X56250000Y-119500000D03*
X52950000Y-119500000D03*
D10*
X41500000Y-121000000D03*
X43500000Y-121000000D03*
D15*
X71871104Y-133609024D03*
X73946104Y-133609024D03*
D10*
X85949043Y-102787853D03*
X87949043Y-102787853D03*
D15*
X69562500Y-121750000D03*
X71637500Y-121750000D03*
D29*
X30000000Y-118499998D03*
D30*
X30000000Y-121499998D03*
X30000000Y-124499998D03*
X30000000Y-127499998D03*
X33000000Y-127499998D03*
X33000000Y-124499998D03*
X33000000Y-121499998D03*
X33000000Y-118499998D03*
D10*
X41500000Y-125250000D03*
X43500000Y-125250000D03*
D14*
X50000000Y-105500000D03*
X50000000Y-107500000D03*
D16*
X53250000Y-110500000D03*
D20*
X53000000Y-107530000D03*
X53000000Y-105530000D03*
D31*
X36175000Y-151500000D03*
X33825000Y-151500000D03*
D32*
X31616929Y-143403051D03*
X27316929Y-143403051D03*
D20*
X67761834Y-146354118D03*
X67761834Y-144354118D03*
X32000000Y-107500000D03*
X32000000Y-105500000D03*
D14*
X82761834Y-144354118D03*
X82761834Y-146354118D03*
D33*
X92083604Y-144934024D03*
X93833604Y-141034024D03*
X95583604Y-144934024D03*
D26*
X95000000Y-151000000D03*
D10*
X38500000Y-153500000D03*
X40500000Y-153500000D03*
D15*
X62462500Y-148500000D03*
X64537500Y-148500000D03*
D27*
X27500000Y-111750000D03*
X26800000Y-111750000D03*
D15*
X81912500Y-126900438D03*
X83987500Y-126900438D03*
D34*
X27700000Y-139650000D03*
X30000000Y-139650000D03*
D35*
X30000000Y-133350000D03*
D34*
X32300000Y-139650000D03*
D14*
X39500000Y-105500000D03*
X39500000Y-107500000D03*
D10*
X38500000Y-151500000D03*
X40500000Y-151500000D03*
D22*
X57862500Y-151525000D03*
X57862500Y-152175000D03*
X57862500Y-152825000D03*
X57862500Y-153475000D03*
X60137500Y-153475000D03*
X60137500Y-152825000D03*
X60137500Y-152175000D03*
X60137500Y-151525000D03*
D19*
X45000000Y-151500000D03*
X43000000Y-151500000D03*
D20*
X73000000Y-105564018D03*
X73000000Y-103564018D03*
D18*
X47325000Y-151500000D03*
X49675000Y-151500000D03*
D15*
X81621104Y-133609024D03*
X83696104Y-133609024D03*
D36*
X77150000Y-125700438D03*
X77150000Y-126650438D03*
X77150000Y-127600438D03*
X79750000Y-127600438D03*
X79750000Y-126650438D03*
X79750000Y-125700438D03*
D31*
X36175000Y-149500000D03*
X33825000Y-149500000D03*
D10*
X88000000Y-126750000D03*
X90000000Y-126750000D03*
D16*
X57266584Y-135195588D03*
D15*
X76700000Y-122400438D03*
X78775000Y-122400438D03*
D13*
X61122529Y-107300000D03*
X59047529Y-107300000D03*
D17*
X57100000Y-121712500D03*
X57100000Y-123787500D03*
D31*
X36175000Y-153500000D03*
X33825000Y-153500000D03*
D27*
X46100000Y-111500000D03*
X45400000Y-111500000D03*
D14*
X63766584Y-138445588D03*
X63766584Y-140445588D03*
D15*
X69562500Y-119250000D03*
X71637500Y-119250000D03*
D20*
X57266584Y-140445588D03*
X57266584Y-138445588D03*
X69707500Y-125763000D03*
X69707500Y-123763000D03*
D23*
X56000000Y-107537500D03*
X56000000Y-105462500D03*
D26*
X95000000Y-97000000D03*
D37*
X38500000Y-116000000D03*
X38500000Y-120000000D03*
D38*
X48187500Y-121950000D03*
X48187500Y-120050000D03*
X46312500Y-121000000D03*
D13*
X48804084Y-141445588D03*
X46729084Y-141445588D03*
D33*
X92083604Y-137734024D03*
X93833604Y-133834024D03*
X95583604Y-137734024D03*
D15*
X66871104Y-133609024D03*
X68946104Y-133609024D03*
D31*
X36175000Y-147500000D03*
X33825000Y-147500000D03*
D26*
X27500000Y-97000000D03*
D10*
X93500000Y-103500000D03*
X95500000Y-103500000D03*
D20*
X86000000Y-111391774D03*
X86000000Y-109391774D03*
D37*
X38500000Y-123500000D03*
X38500000Y-127500000D03*
D10*
X59522529Y-103500000D03*
X61522529Y-103500000D03*
D39*
X80050000Y-115650438D03*
X83350000Y-115650438D03*
M02*
